{
  "accessors": [
    {
      "bufferView": 1,
      "componentType": 5126,
      "count": 65532,
      "max": [
        0.2885528802871704,
        0.12641102075576782,
        0.6204396486282349
      ],
      "min": [
        -0.2775188982486725,
        -0.12833024561405182,
        -0.6243373155593872
      ],
      "type": "VEC3"
    },
    {
      "bufferView": 1,
      "byteOffset": 786384,
      "componentType": 5126,
      "count": 65532,
      "max": [
        0.9999788999557495,
        0.999983549118042,
        0.9998779296875
      ],
      "min": [
        -0.9999817609786987,
        -0.9999984502792358,
        -0.9999919533729553
      ],
      "type": "VEC3"
    },
    {
      "bufferView": 2,
      "componentType": 5126,
      "count": 65532,
      "max": [
        0.9764705896377563,
        0.9450980424880981,
        0.9450980424880981,
        1.0
      ],
      "min": [
        0.10196078568696976,
        0.0235294122248888,
        0.05882352963089943,
        1.0
      ],
      "type": "VEC4"
    },
    {
      "bufferView": 0,
      "componentType": 5125,
      "count": 346671,
      "type": "SCALAR"
    },
    {
      "bufferView": 1,
      "byteOffset": 1572768,
      "componentType": 5126,
      "count": 29906,
      "max": [
        0.28619423508644104,
        0.12673838436603546,
        0.6198705434799194
      ],
      "min": [
        -0.2773887515068054,
        -0.12820841372013092,
        -0.6243231296539307
      ],
      "type": "VEC3"
    },
    {
      "bufferView": 1,
      "byteOffset": 1931640,
      "componentType": 5126,
      "count": 29906,
      "max": [
        0.9999909400939941,
        0.999983549118042,
        0.9999530911445618
      ],
      "min": [
        -0.9999750852584839,
        -0.9999984502792358,
        -0.9999476075172424
      ],
      "type": "VEC3"
    },
    {
      "bufferView": 2,
      "byteOffset": 1048512,
      "componentType": 5126,
      "count": 29906,
      "max": [
        0.9764705896377563,
        0.9529411792755127,
        0.9529411792755127,
        1.0
      ],
      "min": [
        0.10588235408067703,
        0.0235294122248888,
        0.062745101749897,
        1.0
      ],
      "type": "VEC4"
    },
    {
      "bufferView": 0,
      "byteOffset": 1386684,
      "componentType": 5125,
      "count": 103623,
      "type": "SCALAR"
    }
  ],
  "asset": {
    "extras": {
      "author": "Grell (https://sketchfab.com/grell)",
      "license": "CC-BY-4.0 (http://creativecommons.org/licenses/by/4.0/)",
      "source": "https://sketchfab.com/3d-models/bikini-girl-sf-101-568316e9e1724a288b1559ef96abeff9",
      "title": "Bikini Girl_SF_101"
    },
    "generator": "Sketchfab-16.72.0",
    "version": "2.0"
  },
  "bufferViews": [
    {
      "buffer": 0,
      "byteLength": 1801176,
      "name": "floatBufferViews",
      "target": 34963
    },
    {
      "buffer": 0,
      "byteLength": 2290512,
      "byteOffset": 1801176,
      "byteStride": 12,
      "name": "floatBufferViews",
      "target": 34962
    },
    {
      "buffer": 0,
      "byteLength": 1527008,
      "byteOffset": 4091688,
      "byteStride": 16,
      "name": "floatBufferViews",
      "target": 34962
    }
  ],
  "buffers": [
    {
      "byteLength": 5618696,
      "uri": "scene.bin"
    }
  ],
  "extensionsUsed": [
    "KHR_materials_specular"
  ],
  "materials": [
    {
      "doubleSided": true,
      "extensions": {
        "KHR_materials_specular": {
          "specularColorFactor": [
            1.0,
            1.0,
            1.0
          ],
          "specularFactor": 0.6201923663005449
        }
      },
      "name": "material_0",
      "pbrMetallicRoughness": {
        "metallicFactor": 0.3337153027513988,
        "roughnessFactor": 0.7116212163694212
      }
    }
  ],
  "meshes": [
    {
      "name": "Object_0",
      "primitives": [
        {
          "attributes": {
            "COLOR_0": 2,
            "NORMAL": 1,
            "POSITION": 0
          },
          "indices": 3,
          "material": 0,
          "mode": 4
        }
      ]
    },
    {
      "name": "Object_1",
      "primitives": [
        {
          "attributes": {
            "COLOR_0": 6,
            "NORMAL": 5,
            "POSITION": 4
          },
          "indices": 7,
          "material": 0,
          "mode": 4
        }
      ]
    }
  ],
  "nodes": [
    {
      "children": [
        1
      ],
      "matrix": [
        1.0,
        0.0,
        0.0,
        0.0,
        0.0,
        2.220446049250313e-16,
        -1.0,
        0.0,
        0.0,
        1.0,
        2.220446049250313e-16,
        0.0,
        0.0,
        0.0,
        0.0,
        1.0
      ],
      "name": "Sketchfab_model"
    },
    {
      "children": [
        2,
        3
      ],
      "name": "BikiniGirl_101.obj.cleaner.materialmerger.gles"
    },
    {
      "mesh": 0,
      "name": "Object_2"
    },
    {
      "mesh": 1,
      "name": "Object_3"
    }
  ],
  "scene": 0,
  "scenes": [
    {
      "name": "Sketchfab_Scene",
      "nodes": [
        0
      ]
    }
  ]
}
