{
    "asset" : {
        "generator" : "Khronos glTF Blender I/O v1.6.16",
        "version" : "2.0"
    },
    "scene" : 0,
    "scenes" : [
        {
            "name" : "Scene",
            "nodes" : [
                15
            ]
        }
    ],
    "nodes" : [
        {
            "name" : "07dc563a9d1b43899dfa14282aa76f24.fbx",
            "scale" : [
                0.009999998845160007,
                0.010000000707805157,
                0.010000000707805157
            ],
            "translation" : [
                -2.7472140789031982,
                -0.32220458984375,
                0
            ]
        },
        {
            "name" : "Cube",
            "rotation" : [
                -0.7071068286895752,
                0,
                0,
                0.7071067094802856
            ],
            "translation" : [
                -2.7472140789031982,
                -0.32220458984375,
                0
            ]
        },
        {
            "name" : "Cube.001",
            "rotation" : [
                -0.7071068286895752,
                0,
                0,
                0.7071067094802856
            ],
            "translation" : [
                -2.7472140789031982,
                -0.32220458984375,
                0
            ]
        },
        {
            "mesh" : 0,
            "name" : "Cube.001_Material.001_0",
            "rotation" : [
                -0.7071068286895752,
                0,
                0,
                0.7071067094802856
            ],
            "scale" : [
                0.7370213270187378,
                0.7370211482048035,
                0.7370211482048035
            ]
        },
        {
            "mesh" : 1,
            "name" : "Cube.004_Material.001_0",
            "rotation" : [
                -0.5,
                0.5,
                0.5,
                0.5
            ],
            "scale" : [
                0.7370213866233826,
                0.7370213270187378,
                0.7370213866233826
            ]
        },
        {
            "mesh" : 2,
            "name" : "Cube_Material_0",
            "rotation" : [
                -0.7071068286895752,
                0,
                0,
                0.7071067094802856
            ],
            "scale" : [
                0.7370213270187378,
                0.7370211482048035,
                0.7370211482048035
            ]
        },
        {
            "children" : [
                3,
                4,
                5
            ],
            "name" : "Empty",
            "scale" : [
                1.356812596321106,
                1.356812596321106,
                1.356812596321106
            ],
            "translation" : [
                -2.7472140789031982,
                -0.32220458984375,
                0
            ]
        },
        {
            "mesh" : 3,
            "name" : "BezierCurve.001_Material.001_0",
            "rotation" : [
                0,
                0.7071068286895752,
                0,
                0.7071067094802856
            ],
            "scale" : [
                0.9280434250831604,
                0.9280438423156738,
                0.9280432462692261
            ],
            "translation" : [
                0,
                1.0136804580688477,
                0.048766300082206726
            ]
        },
        {
            "mesh" : 4,
            "name" : "BezierCurve_Material.001_0",
            "scale" : [
                0.9280436635017395,
                0.9280438423156738,
                0.9280438423156738
            ],
            "translation" : [
                0,
                1.0156211853027344,
                0
            ]
        },
        {
            "mesh" : 5,
            "name" : "Cube.002_Material_0",
            "rotation" : [
                0.7131715416908264,
                0,
                0,
                0.7009896636009216
            ],
            "scale" : [
                1.094237208366394,
                1.0942851305007935,
                0.30943870544433594
            ],
            "translation" : [
                0,
                0.48807621002197266,
                0
            ]
        },
        {
            "mesh" : 6,
            "name" : "Cube.003_Material.001_0",
            "rotation" : [
                0.7131715416908264,
                0,
                0,
                0.7009896636009216
            ],
            "scale" : [
                1.094237208366394,
                1.0942851305007935,
                0.30943870544433594
            ],
            "translation" : [
                0,
                0.48807621002197266,
                0
            ]
        },
        {
            "mesh" : 7,
            "name" : "Cube.005_Material.001_0",
            "rotation" : [
                0.5070698857307434,
                0.49294140934944153,
                -0.5049019455909729,
                0.49493730068206787
            ],
            "scale" : [
                1.1055548191070557,
                1.1056302785873413,
                0.31268543004989624
            ],
            "translation" : [
                0,
                0.48807621002197266,
                0
            ]
        },
        {
            "children" : [
                7,
                8,
                9,
                10,
                11
            ],
            "name" : "Empty.001",
            "translation" : [
                -2.7472140789031982,
                0,
                0
            ]
        },
        {
            "name" : "RootNode",
            "scale" : [
                0.009999998845160007,
                0.010000000707805157,
                0.010000000707805157
            ],
            "translation" : [
                -2.7472140789031982,
                -0.32220458984375,
                0
            ]
        },
        {
            "name" : "Sketchfab_model",
            "rotation" : [
                -0.7071068286895752,
                0,
                0,
                0.7071067094802856
            ],
            "translation" : [
                -2.7472140789031982,
                -0.32220458984375,
                0
            ]
        },
        {
            "children" : [
                0,
                1,
                2,
                6,
                12,
                13,
                14
            ],
            "name" : "Empty.002",
            "translation" : [
                2.7472140789031982,
                8.322795867919922,
                0
            ]
        }
    ],
    "animations" : [
        {
            "channels" : [
                {
                    "sampler" : 0,
                    "target" : {
                        "node" : 15,
                        "path" : "translation"
                    }
                },
                {
                    "sampler" : 1,
                    "target" : {
                        "node" : 15,
                        "path" : "rotation"
                    }
                },
                {
                    "sampler" : 2,
                    "target" : {
                        "node" : 15,
                        "path" : "scale"
                    }
                }
            ],
            "name" : "Empty.002Action",
            "samplers" : [
                {
                    "input" : 28,
                    "interpolation" : "LINEAR",
                    "output" : 29
                },
                {
                    "input" : 30,
                    "interpolation" : "LINEAR",
                    "output" : 31
                },
                {
                    "input" : 28,
                    "interpolation" : "LINEAR",
                    "output" : 32
                }
            ]
        },
        {
            "channels" : [
                {
                    "sampler" : 0,
                    "target" : {
                        "node" : 12,
                        "path" : "translation"
                    }
                },
                {
                    "sampler" : 1,
                    "target" : {
                        "node" : 12,
                        "path" : "rotation"
                    }
                },
                {
                    "sampler" : 2,
                    "target" : {
                        "node" : 12,
                        "path" : "scale"
                    }
                }
            ],
            "name" : "Empty.001Action.001",
            "samplers" : [
                {
                    "input" : 28,
                    "interpolation" : "LINEAR",
                    "output" : 33
                },
                {
                    "input" : 34,
                    "interpolation" : "STEP",
                    "output" : 35
                },
                {
                    "input" : 34,
                    "interpolation" : "STEP",
                    "output" : 36
                }
            ]
        }
    ],
    "materials" : [
        {
            "doubleSided" : true,
            "name" : "Material.002",
            "pbrMetallicRoughness" : {
                "baseColorFactor" : [
                    0.8000000715255737,
                    0.07052437961101532,
                    0.6957677602767944,
                    1
                ],
                "metallicFactor" : 0,
                "roughnessFactor" : 0.9581367373466492
            }
        },
        {
            "doubleSided" : true,
            "name" : "Material.001",
            "pbrMetallicRoughness" : {
                "metallicFactor" : 0,
                "roughnessFactor" : 0.7763931751251221
            }
        }
    ],
    "meshes" : [
        {
            "name" : "Cube.001_Material.001_0",
            "primitives" : [
                {
                    "attributes" : {
                        "POSITION" : 0,
                        "NORMAL" : 1,
                        "TEXCOORD_0" : 2
                    },
                    "indices" : 3,
                    "material" : 0
                }
            ]
        },
        {
            "name" : "Cube.004_Material.001_0",
            "primitives" : [
                {
                    "attributes" : {
                        "POSITION" : 4,
                        "NORMAL" : 5,
                        "TEXCOORD_0" : 6
                    },
                    "indices" : 3,
                    "material" : 0
                }
            ]
        },
        {
            "name" : "Cube_Material_0",
            "primitives" : [
                {
                    "attributes" : {
                        "POSITION" : 7,
                        "NORMAL" : 8,
                        "TEXCOORD_0" : 9
                    },
                    "indices" : 10,
                    "material" : 1
                }
            ]
        },
        {
            "name" : "BezierCurve.001_Material.001_0",
            "primitives" : [
                {
                    "attributes" : {
                        "POSITION" : 11,
                        "NORMAL" : 12,
                        "TEXCOORD_0" : 13
                    },
                    "indices" : 14,
                    "material" : 0
                }
            ]
        },
        {
            "name" : "BezierCurve_Material.001_0",
            "primitives" : [
                {
                    "attributes" : {
                        "POSITION" : 15,
                        "NORMAL" : 16,
                        "TEXCOORD_0" : 17
                    },
                    "indices" : 14,
                    "material" : 0
                }
            ]
        },
        {
            "name" : "Cube.002_Material_0",
            "primitives" : [
                {
                    "attributes" : {
                        "POSITION" : 18,
                        "NORMAL" : 19,
                        "TEXCOORD_0" : 20
                    },
                    "indices" : 21,
                    "material" : 1
                }
            ]
        },
        {
            "name" : "Cube.003_Material.001_0",
            "primitives" : [
                {
                    "attributes" : {
                        "POSITION" : 22,
                        "NORMAL" : 23,
                        "TEXCOORD_0" : 24
                    },
                    "indices" : 3,
                    "material" : 0
                }
            ]
        },
        {
            "name" : "Cube.005_Material.001_0",
            "primitives" : [
                {
                    "attributes" : {
                        "POSITION" : 25,
                        "NORMAL" : 26,
                        "TEXCOORD_0" : 27
                    },
                    "indices" : 3,
                    "material" : 0
                }
            ]
        }
    ],
    "accessors" : [
        {
            "bufferView" : 0,
            "componentType" : 5126,
            "count" : 8,
            "max" : [
                1.0499999523162842,
                0.20000003278255463,
                1
            ],
            "min" : [
                -1.0499999523162842,
                -0.20000003278255463,
                -1.0353553295135498
            ],
            "type" : "VEC3"
        },
        {
            "bufferView" : 1,
            "componentType" : 5126,
            "count" : 8,
            "type" : "VEC3"
        },
        {
            "bufferView" : 2,
            "componentType" : 5126,
            "count" : 8,
            "type" : "VEC2"
        },
        {
            "bufferView" : 3,
            "componentType" : 5123,
            "count" : 18,
            "type" : "SCALAR"
        },
        {
            "bufferView" : 4,
            "componentType" : 5126,
            "count" : 8,
            "max" : [
                1.0499999523162842,
                0.20000003278255463,
                1
            ],
            "min" : [
                -1.0499999523162842,
                -0.20000003278255463,
                -1.0353553295135498
            ],
            "type" : "VEC3"
        },
        {
            "bufferView" : 5,
            "componentType" : 5126,
            "count" : 8,
            "type" : "VEC3"
        },
        {
            "bufferView" : 6,
            "componentType" : 5126,
            "count" : 8,
            "type" : "VEC2"
        },
        {
            "bufferView" : 7,
            "componentType" : 5126,
            "count" : 17,
            "max" : [
                1,
                1,
                1
            ],
            "min" : [
                -1,
                -1,
                -1
            ],
            "type" : "VEC3"
        },
        {
            "bufferView" : 8,
            "componentType" : 5126,
            "count" : 17,
            "type" : "VEC3"
        },
        {
            "bufferView" : 9,
            "componentType" : 5126,
            "count" : 17,
            "type" : "VEC2"
        },
        {
            "bufferView" : 10,
            "componentType" : 5123,
            "count" : 48,
            "type" : "SCALAR"
        },
        {
            "bufferView" : 11,
            "componentType" : 5126,
            "count" : 392,
            "max" : [
                1.1827645301818848,
                0.3025950789451599,
                0.30000007152557373
            ],
            "min" : [
                -1.1827645301818848,
                -0.17088083922863007,
                -0.3025648295879364
            ],
            "type" : "VEC3"
        },
        {
            "bufferView" : 12,
            "componentType" : 5126,
            "count" : 392,
            "type" : "VEC3"
        },
        {
            "bufferView" : 13,
            "componentType" : 5126,
            "count" : 392,
            "type" : "VEC2"
        },
        {
            "bufferView" : 14,
            "componentType" : 5123,
            "count" : 2328,
            "type" : "SCALAR"
        },
        {
            "bufferView" : 15,
            "componentType" : 5126,
            "count" : 392,
            "max" : [
                1.1827623844146729,
                0.3033428192138672,
                0.30003148317337036
            ],
            "min" : [
                -1.1827666759490967,
                -0.17013311386108398,
                -0.30253341794013977
            ],
            "type" : "VEC3"
        },
        {
            "bufferView" : 16,
            "componentType" : 5126,
            "count" : 392,
            "type" : "VEC3"
        },
        {
            "bufferView" : 17,
            "componentType" : 5126,
            "count" : 392,
            "type" : "VEC2"
        },
        {
            "bufferView" : 18,
            "componentType" : 5126,
            "count" : 34,
            "max" : [
                1,
                1,
                1
            ],
            "min" : [
                -1,
                -1,
                -1
            ],
            "type" : "VEC3"
        },
        {
            "bufferView" : 19,
            "componentType" : 5126,
            "count" : 34,
            "type" : "VEC3"
        },
        {
            "bufferView" : 20,
            "componentType" : 5126,
            "count" : 34,
            "type" : "VEC2"
        },
        {
            "bufferView" : 21,
            "componentType" : 5123,
            "count" : 132,
            "type" : "SCALAR"
        },
        {
            "bufferView" : 22,
            "componentType" : 5126,
            "count" : 8,
            "max" : [
                1.0499999523162842,
                0.20000003278255463,
                1
            ],
            "min" : [
                -1.0499999523162842,
                -0.20000003278255463,
                -1.0353553295135498
            ],
            "type" : "VEC3"
        },
        {
            "bufferView" : 23,
            "componentType" : 5126,
            "count" : 8,
            "type" : "VEC3"
        },
        {
            "bufferView" : 24,
            "componentType" : 5126,
            "count" : 8,
            "type" : "VEC2"
        },
        {
            "bufferView" : 25,
            "componentType" : 5126,
            "count" : 8,
            "max" : [
                1.0499999523162842,
                0.20000003278255463,
                1
            ],
            "min" : [
                -1.0499999523162842,
                -0.20000003278255463,
                -1.0353553295135498
            ],
            "type" : "VEC3"
        },
        {
            "bufferView" : 26,
            "componentType" : 5126,
            "count" : 8,
            "type" : "VEC3"
        },
        {
            "bufferView" : 27,
            "componentType" : 5126,
            "count" : 8,
            "type" : "VEC2"
        },
        {
            "bufferView" : 28,
            "componentType" : 5126,
            "count" : 20,
            "max" : [
                0.8333333333333334
            ],
            "min" : [
                0.041666666666666664
            ],
            "type" : "SCALAR"
        },
        {
            "bufferView" : 29,
            "componentType" : 5126,
            "count" : 20,
            "type" : "VEC3"
        },
        {
            "bufferView" : 30,
            "componentType" : 5126,
            "count" : 15,
            "max" : [
                0.625
            ],
            "min" : [
                0.041666666666666664
            ],
            "type" : "SCALAR"
        },
        {
            "bufferView" : 31,
            "componentType" : 5126,
            "count" : 15,
            "type" : "VEC4"
        },
        {
            "bufferView" : 32,
            "componentType" : 5126,
            "count" : 20,
            "type" : "VEC3"
        },
        {
            "bufferView" : 33,
            "componentType" : 5126,
            "count" : 20,
            "type" : "VEC3"
        },
        {
            "bufferView" : 34,
            "componentType" : 5126,
            "count" : 1,
            "max" : [
                0.4166666666666667
            ],
            "min" : [
                0.4166666666666667
            ],
            "type" : "SCALAR"
        },
        {
            "bufferView" : 35,
            "componentType" : 5126,
            "count" : 1,
            "type" : "VEC4"
        },
        {
            "bufferView" : 36,
            "componentType" : 5126,
            "count" : 1,
            "type" : "VEC3"
        }
    ],
    "bufferViews" : [
        {
            "buffer" : 0,
            "byteLength" : 96,
            "byteOffset" : 0
        },
        {
            "buffer" : 0,
            "byteLength" : 96,
            "byteOffset" : 96
        },
        {
            "buffer" : 0,
            "byteLength" : 64,
            "byteOffset" : 192
        },
        {
            "buffer" : 0,
            "byteLength" : 36,
            "byteOffset" : 256
        },
        {
            "buffer" : 0,
            "byteLength" : 96,
            "byteOffset" : 292
        },
        {
            "buffer" : 0,
            "byteLength" : 96,
            "byteOffset" : 388
        },
        {
            "buffer" : 0,
            "byteLength" : 64,
            "byteOffset" : 484
        },
        {
            "buffer" : 0,
            "byteLength" : 204,
            "byteOffset" : 548
        },
        {
            "buffer" : 0,
            "byteLength" : 204,
            "byteOffset" : 752
        },
        {
            "buffer" : 0,
            "byteLength" : 136,
            "byteOffset" : 956
        },
        {
            "buffer" : 0,
            "byteLength" : 96,
            "byteOffset" : 1092
        },
        {
            "buffer" : 0,
            "byteLength" : 4704,
            "byteOffset" : 1188
        },
        {
            "buffer" : 0,
            "byteLength" : 4704,
            "byteOffset" : 5892
        },
        {
            "buffer" : 0,
            "byteLength" : 3136,
            "byteOffset" : 10596
        },
        {
            "buffer" : 0,
            "byteLength" : 4656,
            "byteOffset" : 13732
        },
        {
            "buffer" : 0,
            "byteLength" : 4704,
            "byteOffset" : 18388
        },
        {
            "buffer" : 0,
            "byteLength" : 4704,
            "byteOffset" : 23092
        },
        {
            "buffer" : 0,
            "byteLength" : 3136,
            "byteOffset" : 27796
        },
        {
            "buffer" : 0,
            "byteLength" : 408,
            "byteOffset" : 30932
        },
        {
            "buffer" : 0,
            "byteLength" : 408,
            "byteOffset" : 31340
        },
        {
            "buffer" : 0,
            "byteLength" : 272,
            "byteOffset" : 31748
        },
        {
            "buffer" : 0,
            "byteLength" : 264,
            "byteOffset" : 32020
        },
        {
            "buffer" : 0,
            "byteLength" : 96,
            "byteOffset" : 32284
        },
        {
            "buffer" : 0,
            "byteLength" : 96,
            "byteOffset" : 32380
        },
        {
            "buffer" : 0,
            "byteLength" : 64,
            "byteOffset" : 32476
        },
        {
            "buffer" : 0,
            "byteLength" : 96,
            "byteOffset" : 32540
        },
        {
            "buffer" : 0,
            "byteLength" : 96,
            "byteOffset" : 32636
        },
        {
            "buffer" : 0,
            "byteLength" : 64,
            "byteOffset" : 32732
        },
        {
            "buffer" : 0,
            "byteLength" : 80,
            "byteOffset" : 32796
        },
        {
            "buffer" : 0,
            "byteLength" : 240,
            "byteOffset" : 32876
        },
        {
            "buffer" : 0,
            "byteLength" : 60,
            "byteOffset" : 33116
        },
        {
            "buffer" : 0,
            "byteLength" : 240,
            "byteOffset" : 33176
        },
        {
            "buffer" : 0,
            "byteLength" : 240,
            "byteOffset" : 33416
        },
        {
            "buffer" : 0,
            "byteLength" : 240,
            "byteOffset" : 33656
        },
        {
            "buffer" : 0,
            "byteLength" : 4,
            "byteOffset" : 33896
        },
        {
            "buffer" : 0,
            "byteLength" : 16,
            "byteOffset" : 33900
        },
        {
            "buffer" : 0,
            "byteLength" : 12,
            "byteOffset" : 33916
        }
    ],
    "buffers" : [
        {
            "byteLength" : 33928,
            "uri" : "data:application/octet-stream;base64,"
        }
    ]
}
